<svg width="96" height="96" viewBox="0 0 96 96" fill="none" xmlns="http://www.w3.org/2000/svg">
<g filter="url(#filter0_d_495_939)">
<circle cx="48" cy="40" r="32" fill="white"/>
</g>
<path d="M44.1433 35.9771L56.3217 23.7965L64.0941 31.57L51.9146 43.7495L44.1433 35.9771Z" fill="#CCD6DD"/>
<path d="M36.9302 58.2916C30.6741 57.8461 29.5575 53.4491 29.7083 51.0708C30.0678 45.4098 47.1278 32.5905 47.1278 32.5905L61.1039 34.7455C61.105 34.7455 41.6879 58.6311 36.9302 58.2916Z" fill="#68E090"/>
<path d="M63.9768 24.0232C60.7154 20.7617 57.0296 19.1583 55.7455 20.4435C55.731 20.458 55.721 20.4781 55.7076 20.4926C55.7009 20.4993 55.6908 20.5015 55.6841 20.5082L30.4453 45.747C28.8687 47.3236 28 49.4205 28 51.6514C28 53.8812 28.8687 55.9781 30.4453 57.5547C32.023 59.1324 34.1199 60 36.3497 60C38.5806 60 40.6764 59.1324 42.253 57.5558L67.4918 32.317C67.4996 32.3092 67.5018 32.2991 67.5085 32.2913C67.523 32.2779 67.542 32.269 67.5565 32.2545C68.8417 30.9704 67.2383 27.2846 63.9768 24.0232ZM39.8858 55.1876C38.9412 56.1322 37.6862 56.6514 36.3508 56.6514C35.0154 56.6514 33.7592 56.1311 32.8146 55.1865C31.87 54.2419 31.3497 52.9869 31.3497 51.6503C31.3497 50.3149 31.87 49.0599 32.8135 48.1153L56.2569 24.673C56.9514 25.9504 57.9987 27.3461 59.3263 28.6748C60.6539 30.0024 62.0508 31.0497 63.3281 31.7442L39.8858 55.1876Z" fill="#8899A6"/>
<path d="M60.482 34.5591C60.4172 34.9822 57.5487 35.3976 54.1276 34.9421C50.7075 34.4865 48.0066 33.5765 48.0948 32.9099C48.1841 32.2433 51.028 32.0714 54.4492 32.5269C57.8703 32.9825 60.5847 33.8936 60.482 34.5591ZM39.9863 45.8397C39.6402 46.1859 39.0785 46.1859 38.7324 45.8397C38.3863 45.4936 38.3863 44.932 38.7324 44.5858C39.0785 44.2397 39.6402 44.2397 39.9863 44.5858C40.3324 44.932 40.3324 45.4936 39.9863 45.8397ZM43.6899 48.7595C43.1238 49.3256 42.2071 49.3245 41.641 48.7595C41.0761 48.1946 41.0761 47.2767 41.641 46.7118C42.2071 46.1457 43.1238 46.1468 43.6888 46.7118C44.2549 47.2767 44.256 48.1934 43.6899 48.7595ZM45.5624 42.815C45.0309 43.3464 44.1667 43.3464 43.6352 42.815C43.1037 42.2835 43.1037 41.4204 43.6352 40.8878C44.1667 40.3563 45.0298 40.3552 45.5613 40.8878C46.095 41.4204 46.095 42.2835 45.5624 42.815ZM37.8938 52.7055C37.2451 53.3542 36.1922 53.3542 35.5435 52.7055C34.8936 52.0556 34.8948 51.0038 35.5435 50.3551C36.1922 49.7064 37.244 49.7064 37.8938 50.3551C38.5426 51.0038 38.5437 52.0556 37.8938 52.7055ZM50.6182 42.48C50.1571 42.9411 49.409 42.9411 48.9478 42.48C48.4867 42.0188 48.4878 41.2707 48.949 40.8096C49.4112 40.3473 50.1582 40.3473 50.6193 40.8085C51.0805 41.2707 51.0805 42.0177 50.6182 42.48ZM49.2705 37.6922C48.9691 37.9936 48.48 37.9936 48.1774 37.6922C47.8759 37.3907 47.8759 36.9016 48.1774 36.599C48.4789 36.2976 48.9679 36.2964 49.2705 36.599C49.572 36.9016 49.572 37.3907 49.2705 37.6922Z" fill="#17BF63"/>
<path d="M66.1189 29.5415C66.6352 29.0253 65.3403 26.8934 63.2268 24.7799C61.1132 22.6665 58.9813 21.3717 58.4651 21.888C57.9488 22.4043 59.2436 24.5361 61.3572 26.6496C63.4707 28.763 65.6026 30.0578 66.1189 29.5415Z" fill="#CCD6DD"/>
<defs>
<filter id="filter0_d_495_939" x="0" y="0" width="96" height="96" filterUnits="userSpaceOnUse" color-interpolation-filters="sRGB">
<feFlood flood-opacity="0" result="BackgroundImageFix"/>
<feColorMatrix in="SourceAlpha" type="matrix" values="0 0 0 0 0 0 0 0 0 0 0 0 0 0 0 0 0 0 127 0" result="hardAlpha"/>
<feOffset dy="8"/>
<feGaussianBlur stdDeviation="8"/>
<feColorMatrix type="matrix" values="0 0 0 0 0 0 0 0 0 0 0 0 0 0 0 0 0 0 0.08 0"/>
<feBlend mode="normal" in2="BackgroundImageFix" result="effect1_dropShadow_495_939"/>
<feBlend mode="normal" in="SourceGraphic" in2="effect1_dropShadow_495_939" result="shape"/>
</filter>
</defs>
</svg>
