<svg width="20" height="20" viewBox="0 0 20 20" fill="none" xmlns="http://www.w3.org/2000/svg">
<path fill-rule="evenodd" clip-rule="evenodd" d="M10 18.7C14.8049 18.7 18.7 14.8049 18.7 10C18.7 5.19512 14.8049 1.3 10 1.3C5.19512 1.3 1.3 5.19512 1.3 10C1.3 14.8049 5.19512 18.7 10 18.7ZM10 20C15.5228 20 20 15.5228 20 10C20 4.47715 15.5228 0 10 0C4.47715 0 0 4.47715 0 10C0 15.5228 4.47715 20 10 20Z" fill="#EF5A04"/>
<path d="M10.6531 5.21133H9.34717V11.7412H10.6531V5.21133Z" fill="#EF5A04"/>
<path d="M10.0001 13.0473C9.51997 13.0473 9.12939 13.4379 9.12939 13.918C9.12939 14.3981 9.51997 14.7887 10.0001 14.7887C10.4801 14.7887 10.8707 14.3981 10.8707 13.918C10.8707 13.4379 10.4802 13.0473 10.0001 13.0473Z" fill="#EF5A04"/>
</svg>
