<svg width="18" height="20" viewBox="0 0 18 20" fill="none" xmlns="http://www.w3.org/2000/svg">
<path fill-rule="evenodd" clip-rule="evenodd" d="M10.7423 17.4318C11.3614 18.4545 10.6047 19.75 9.3664 19.75C8.19691 19.75 7.44018 18.4545 8.05932 17.4318H10.7423Z" fill="#DBE3F0"/>
<path fill-rule="evenodd" clip-rule="evenodd" d="M1.93669 16.9545C0.354437 16.9545 0.354437 14.6364 1.93669 14.6364C3.24377 14.6364 3.31256 10.2727 3.31256 8.70455C3.31256 5.09091 5.44516 2.97727 7.99053 2.43182C7.50897 1.40909 8.2657 0.25 9.3664 0.25C10.5359 0.25 11.2926 1.40909 10.8111 2.43182C13.3564 2.97727 15.489 5.09091 15.489 8.70455C15.489 10.2727 15.5578 14.6364 16.8649 14.6364C18.3784 14.6364 18.3784 16.9545 16.8649 16.9545H1.93669ZM5.44516 9.11364C5.51396 9.79545 4.41326 9.86364 4.34447 9.11364C4.34447 7.54545 4.82602 5.43182 6.33948 4.54545C6.95862 4.20455 7.50897 5.15909 6.82104 5.5C5.72034 6.11364 5.44516 7.95455 5.44516 9.11364Z" fill="#DBE3F0"/>
</svg>
