<svg width="64" height="64" viewBox="0 0 64 64" fill="none" xmlns="http://www.w3.org/2000/svg">
<g opacity="0.9" clip-path="url(#clip0_3742_15754)">
<path d="M31.9997 25.6967L12 18.8263V45.0877L31.9999 51.9997L31.9997 25.6967Z" fill="#B8A58B"/>
<path d="M32 25.6967L52.0001 18.8263V45.0877L32.0002 51.9997L32 25.6967Z" fill="#DAC3A0"/>
<path d="M31.9997 12L12 18.8484L31.9997 25.6968L51.9998 18.8484L31.9997 12Z" fill="#E1D1BA"/>
<path d="M39.5143 14.5732L19.5146 21.4216L24.4866 23.1237L44.4857 16.2755L39.5143 14.5732Z" fill="#9CA3AC"/>
<path d="M24.4862 23.1262V29.4971L21.4753 28.1735L19.5116 27.308V21.4244L21.4753 22.0935L24.4862 23.1262Z" fill="#8F97A2"/>
</g>
<path d="M63 32C62.4477 32 62.0017 32.4499 61.9836 33.0019C61.4551 49.1066 48.2333 62 32 62C15.4315 62 2 48.5685 2 32C2 15.7667 14.8934 2.54488 30.9981 2.01641C31.5501 1.9983 32 1.55228 32 1C32 0.447715 31.5499 -0.00158775 30.9979 0.0153939C13.7885 0.544797 0 14.6622 0 32C0 49.6731 14.3269 64 32 64C49.3378 64 63.4552 50.2115 63.9846 33.0021C64.0016 32.4501 63.5523 32 63 32Z" fill="#C3C3EB"/>
<defs>
<clipPath id="clip0_3742_15754">
<rect width="40" height="40" fill="white" transform="translate(12 12)"/>
</clipPath>
</defs>
</svg>
