<svg width="20" height="20" viewBox="0 0 20 20" fill="none" xmlns="http://www.w3.org/2000/svg">
<path fill-rule="evenodd" clip-rule="evenodd" d="M10 20C15.5228 20 20 15.5228 20 10C20 4.47715 15.5228 0 10 0C4.47715 0 0 4.47715 0 10C0 15.5228 4.47715 20 10 20ZM4.36254 3.44909C4.30185 3.35555 4.23266 3.25053 4.16442 3.14805C5.41821 2.07921 5.17868 2.40641 5.17868 2.40641C5.7462 2.64558 6.28185 2.79105 6.86457 2.94382C7.14632 2.78437 7.42766 2.64976 7.70371 2.54624C7.81325 2.57298 7.92448 2.59959 8.03751 2.62663C8.41139 2.71606 8.80511 2.81025 9.22287 2.92963C10.3075 2.84197 11.3819 2.82089 12.3967 2.83049C12.468 3.10369 12.5353 3.44805 12.5951 3.85231C12.1666 3.8665 11.7194 3.89154 11.2589 3.93558C11.1804 4.10338 11.0958 4.28745 11.0088 4.48113C11.4892 4.87809 11.9851 5.33306 12.4708 5.82226C12.5807 5.81621 12.6892 5.81349 12.7964 5.81203C12.8323 5.26523 12.8597 4.76497 12.8741 4.31542C13.1495 4.34255 13.4167 4.37365 13.6797 4.41038C13.8268 4.68691 13.9711 4.98515 14.1111 5.29904L14.1222 5.29453C14.2442 5.24501 14.362 5.19721 14.4726 5.15629C14.8286 5.85273 15.1473 6.62055 15.4118 7.38462C15.1102 7.48375 14.7546 7.60814 14.3544 7.75632C14.0425 7.90784 13.7037 8.07292 13.3439 8.25366C13.0682 8.65124 12.7709 9.07366 12.4608 9.5086C12.4636 9.73191 12.4651 9.9571 12.4663 10.1798C12.4047 10.1886 12.3439 10.1966 12.2828 10.2047C12.2263 10.2122 12.1695 10.2197 12.1118 10.2278L12.0397 10.0276C11.9757 9.8494 11.9118 9.67164 11.8473 9.49628C11.3828 9.55388 10.9026 9.61566 10.4183 9.68495C10.3734 9.81062 10.3287 9.93633 10.2839 10.0622C10.222 10.2364 10.16 10.4109 10.097 10.5863C10.2228 10.7677 10.3482 10.9455 10.474 11.1223C10.6514 10.9831 10.8273 10.8426 11.0021 10.7032L11.0099 10.697C11.1886 10.7153 11.3659 10.7337 11.5417 10.7521C11.4543 11.0008 11.3674 11.2509 11.2821 11.5023C11.4902 11.5167 11.7006 11.5297 11.9047 11.5391L11.9426 11.6842C11.9985 11.8982 12.0543 12.1116 12.108 12.3238C12.2468 12.366 12.3794 12.4067 12.5104 12.4507C12.6139 12.2808 12.7154 12.1128 12.8122 11.9431C13.4657 11.997 14.0686 12.0425 14.5828 12.0763C14.9302 12.3762 15.232 12.6483 15.4859 12.8942C15.5021 13.0106 15.5172 13.1259 15.5322 13.2401C15.5467 13.3504 15.5612 13.4599 15.5762 13.5681C15.8321 13.6934 16.0348 13.7942 16.1854 13.8692L16.2851 13.9187C16.1965 14.5311 16.0473 15.1695 15.8474 15.7966C15.6777 15.9281 15.4755 16.051 15.2588 16.1667C15.2073 16.3902 15.1532 16.6077 15.096 16.8209C14.6109 17.3875 14.0377 17.9001 13.4418 18.3185C12.952 18.5213 12.4404 18.6822 11.9114 18.7966C12.3021 18.1197 12.7073 17.1239 13.0834 15.9613C12.913 15.8292 12.738 15.6908 12.5563 15.547C12.4503 15.4632 12.3419 15.3774 12.2308 15.2901C12.1092 14.7446 11.9733 14.1652 11.8304 13.5631C12.0221 13.2607 12.2107 12.9524 12.3952 12.6475C12.231 12.6813 12.0632 12.7124 11.8965 12.7404C11.7608 12.5654 11.6219 12.3891 11.4813 12.2105C11.378 12.0792 11.2736 11.9466 11.1688 11.8125C10.9743 11.7149 10.7747 11.616 10.5745 11.5168L10.5318 11.4957C10.0257 11.3189 9.52003 11.1396 9.02279 10.9631C8.61398 10.3225 8.21552 9.69413 7.83836 9.09348C7.62635 8.68731 7.42285 8.29459 7.22803 7.91863L7.18199 7.82978C7.2031 7.26315 7.23201 6.71781 7.26641 6.20335C6.94498 5.66803 6.65773 5.19031 6.40025 4.76497C6.0307 4.61345 5.68605 4.48781 5.36546 4.37365C5.13119 4.55042 4.90874 4.73533 4.70254 4.93151C4.33088 5.26377 4.02232 5.62253 3.80536 6.003C3.94402 5.67346 4.127 5.35143 4.34397 5.04776C4.2224 5.06613 4.10843 5.08721 3.99974 5.10954C3.96555 4.91461 3.9284 4.72114 3.88725 4.526C4.02127 4.30853 4.17998 4.09941 4.35431 3.90427L4.266 3.92009C4.1382 3.94291 4.01351 3.96517 3.894 3.99047C3.92692 3.8377 3.96133 3.69098 3.99847 3.54572C4.11518 3.51316 4.23823 3.4804 4.36254 3.44909Z" fill="#8A4FE8"/>
</svg>
