<svg width="24" height="24" viewBox="0 0 24 24" fill="none" xmlns="http://www.w3.org/2000/svg">
<path d="M11.9939 3C7.05395 3 3 7.05461 3 11.9954C3 15.5106 2.99615 16.9727 3.00001 20.2804C3.00001 20.5693 3.01335 20.6954 3.15437 20.8364C3.29642 20.9785 3.40204 20.991 3.76118 20.991C6.60156 20.991 9.17969 20.9908 11.9939 20.9908C16.9339 20.9908 20.9879 16.9362 20.9879 11.9954C20.9879 7.05461 16.9339 3 11.9939 3ZM11.9939 18.8474C11.1222 18.8474 10.413 18.1381 10.413 17.2661C10.413 16.3942 11.1222 15.6849 11.9939 15.6849C12.8657 15.6849 13.5749 16.3942 13.5749 17.2661C13.5749 18.1381 12.8657 18.8474 11.9939 18.8474ZM14.2156 11.264L13.0479 12.4319V13.5766C13.0479 14.1578 12.575 14.6308 11.9939 14.6308C11.4129 14.6308 10.94 14.1578 10.94 13.5766V12.4319C10.94 11.8688 11.1592 11.3396 11.5575 10.9412L12.7252 9.77335C12.9952 9.50338 13.0479 9.23 13.0479 8.88132C13.0479 8.27342 12.5534 7.77878 11.9456 7.77878C11.3913 7.77878 10.94 8.2302 10.94 8.78455C10.94 9.36567 10.467 9.83871 9.88597 9.83871C9.30494 9.83871 8.83199 9.36567 8.83199 8.78455C8.83199 7.06743 10.2287 5.6705 11.9455 5.6705C13.7159 5.6705 15.1558 7.11069 15.1558 8.88132C15.1559 9.8775 14.83 10.6495 14.2156 11.264Z" fill="#DBE3F0"/>
</svg>
