<svg width="8" height="8" viewBox="0 0 8 8" fill="none" xmlns="http://www.w3.org/2000/svg">
<path d="M2.24202 2.32024L0.513055 2.58015C0.022788 2.65382 -0.173642 3.282 0.18058 3.64304L1.43006 4.91636C1.57078 5.05976 1.63476 5.26616 1.60133 5.46833L1.30399 7.26381C1.2197 7.77295 1.73162 8.16193 2.1704 7.92208L3.71749 7.07617C3.89173 6.98094 4.09975 6.98113 4.27372 7.07682L5.81892 7.92667C6.25707 8.16765 6.76998 7.77989 6.68686 7.27056L6.39365 5.47433C6.36068 5.27206 6.4251 5.06576 6.56618 4.92273L7.81836 3.65251C8.17348 3.29231 7.97849 2.66366 7.48831 2.58877L5.75997 2.32464C5.56534 2.29493 5.39721 2.16718 5.31041 1.98309L4.53916 0.34817C4.32044 -0.115416 3.68703 -0.116259 3.46733 0.346858L2.69239 1.97981C2.60514 2.16362 2.43674 2.291 2.24202 2.32024Z" fill="#8A4FE8"/>
</svg>
