<svg width="20" height="24" viewBox="0 0 20 24" fill="none" xmlns="http://www.w3.org/2000/svg">
<path d="M19.5586 19.6424L13.848 10.5109V5.13431H14.2674C14.7605 5.13431 15.1602 4.711 15.1602 4.1889V0.945406C15.1602 0.423315 14.7605 0 14.2674 0H5.73252C5.2395 0 4.83975 0.423315 4.83975 0.945406V4.1889C4.83975 4.711 5.2395 5.13431 5.73252 5.13431H6.15191V10.5109L0.441374 19.6424C-0.0985758 20.5058 -0.1465 21.6089 0.316242 22.521C0.778985 23.4333 1.6739 24 2.65181 24H17.3481C18.326 24 19.221 23.4333 19.6836 22.5211C20.1465 21.6089 20.0986 20.5058 19.5586 19.6424ZM6.62529 1.89081H13.3747V3.2435C12.7694 3.2435 7.3603 3.2435 6.62529 3.2435V1.89081ZM12.0625 5.13431V10.7955C12.0625 10.9812 12.1141 11.1627 12.2109 11.3174L13.1188 12.7693H9.02378L4.84253 19.4552C4.57034 19.8904 4.01661 20.0099 3.60529 19.7215C3.19419 19.4332 3.08163 18.8466 3.35382 18.4113L7.78904 11.3173C7.88589 11.1626 7.93746 10.9811 7.93746 10.7954V5.13431H12.0625Z" fill="#8A4FE8"/>
</svg>
