<svg width="22" height="18" viewBox="0 0 22 18" fill="none" xmlns="http://www.w3.org/2000/svg">
<g opacity="0.24">
<path fill-rule="evenodd" clip-rule="evenodd" d="M6.67419 1.10344C5.09547 1.10344 3.70621 2.55942 3.70621 4.48448C3.70621 6.40953 5.09547 7.86551 6.67419 7.86551C8.25293 7.86551 9.64221 6.40951 9.64221 4.48448C9.64221 2.55943 8.25296 1.10344 6.67419 1.10344ZM2.6586 4.48448C2.6586 2.01174 4.45997 0 6.67419 0C8.88846 0 10.6898 2.01174 10.6898 4.48448C10.6898 6.95722 8.88841 8.96895 6.67419 8.96895C4.45997 8.96895 2.6586 6.95722 2.6586 4.48448Z" fill="#314370"/>
<path fill-rule="evenodd" clip-rule="evenodd" d="M15.8129 1.74189C14.4576 1.74189 13.3996 3.00076 13.3996 4.48438C13.3996 5.96801 14.4576 7.22573 15.8129 7.22573C17.1681 7.22573 18.2052 5.97241 18.2052 4.48438C18.2052 2.99636 17.128 1.74189 15.8129 1.74189ZM12.3594 4.48438C12.3594 2.36547 13.9058 0.641602 15.8066 0.641602C17.7074 0.641602 19.2538 2.36547 19.2538 4.48438C19.2538 6.60329 17.7074 8.32717 15.8066 8.32717C13.9058 8.32717 12.3594 6.60329 12.3594 4.48438Z" fill="#314370"/>
<path fill-rule="evenodd" clip-rule="evenodd" d="M20.9416 15.5917L20.9415 15.5899C21.0055 14.0195 20.3071 12.2899 19.0625 11.313C18.1591 10.6039 17.1689 10.1686 15.9536 10.1686C15.1077 10.1686 14.4334 10.1686 13.2651 10.8118C13.2651 10.8118 15.105 12.6245 15.565 15.6573C15.9377 15.6573 20.9452 15.6573 20.9452 15.6573C20.9441 15.6354 20.9429 15.6135 20.9416 15.5917ZM21.994 15.6573C21.998 15.7549 22 15.853 22 15.9515V16.7607H14.6349C14.4777 14.3864 13.4984 12.2969 11.6016 10.7025C12.7688 9.5859 14.1805 9.05762 15.8822 9.05762C17.3307 9.05762 18.4602 9.4476 19.5383 10.2939C21.0203 11.4571 22.0603 13.3179 21.9871 15.5216C21.9898 15.5667 21.9921 15.6119 21.994 15.6573Z" fill="#314370"/>
<path fill-rule="evenodd" clip-rule="evenodd" d="M12.2898 16.831L12.2897 16.8292C12.188 15.1023 11.3574 13.5812 10.1128 12.6044C9.20944 11.8952 8.09033 11.4756 6.87499 11.4756H6.47368C3.57051 11.4757 1.20006 13.8768 1.05468 16.8966H12.2934C12.2924 16.8747 12.2912 16.8528 12.2898 16.831ZM13.3422 16.8966C13.3462 16.9942 13.3482 17.0923 13.3482 17.1908V18.0001H0V17.1908C0 17.0923 0.00198581 16.9942 0.0059176 16.8966C0.152192 13.2672 2.99183 10.3722 6.47367 10.3722H6.87499C8.32347 10.3722 9.66066 10.8732 10.7387 11.7195C12.2207 12.8827 13.2137 14.6975 13.3353 16.7609C13.3381 16.806 13.3404 16.8512 13.3422 16.8966Z" fill="#314370"/>
</g>
</svg>
