<svg width="96" height="96" viewBox="0 0 96 96" fill="none" xmlns="http://www.w3.org/2000/svg">
<g filter="url(#filter0_d_495_959)">
<circle cx="48" cy="40" r="32" fill="white"/>
</g>
<path d="M57.9482 56.3399C57.9252 56.2994 57.5214 55.6356 56.7751 55.1236C56.8927 54.6869 56.839 54.2572 56.4237 53.9792C55.3937 53.2923 46.326 54.2132 45.6781 57.1519C45.4098 58.3671 46.3516 58.3671 46.8666 57.9906C46.7094 58.5084 46.6238 59.0389 46.6723 59.537C46.6992 59.8162 46.9713 60.0224 47.2793 59.998C47.3125 59.9957 47.3445 59.9899 47.3751 59.983C47.6333 59.9204 47.8122 59.6969 47.7879 59.4478C47.7547 59.1015 47.8134 58.7273 47.9144 58.3566C48.1444 58.5431 48.4 58.696 48.699 58.6358C49.0568 58.5628 49.283 58.2443 49.4325 57.8968C49.4504 58.1169 49.4862 58.2582 49.49 58.2744C49.5692 58.5431 49.8721 58.7018 50.1685 58.6323L50.1749 58.6312C50.4688 58.5594 50.6452 58.286 50.5736 58.0172C50.5685 57.9999 50.5148 57.7798 50.5519 57.4311C51.0579 57.708 51.6969 57.9593 52.2195 57.8435C52.8853 57.6964 53.2022 57.1878 53.3606 56.6886C53.8628 57.116 54.1593 57.6164 54.4583 58.1979C54.5746 58.425 54.8519 58.5373 55.11 58.4748C55.142 58.4667 55.1714 58.4574 55.202 58.4447C55.4832 58.3265 55.6046 58.0242 55.4742 57.7705C55.2621 57.357 55.0001 56.8566 54.5657 56.3712C54.9618 56.611 55.3797 56.7789 55.6531 56.6341C55.8435 56.5334 56.0697 56.3202 56.2767 56.0608C56.7086 56.4094 56.9514 56.8091 56.954 56.816C57.0805 57.028 57.3476 57.1276 57.5942 57.0674C57.6338 57.0581 57.6734 57.0442 57.7118 57.0257C57.9878 56.8913 58.0926 56.5867 57.9482 56.3399Z" fill="#99AAB5"/>
<path d="M54.2858 32.7544C50.0382 32.4162 47.9975 30.2489 46.7388 28.1406C46.496 27.7329 44.5588 23.8952 43.562 21.4175C42.6164 19.0671 41.028 20.3078 40.2996 20.485C39.57 20.6622 38.4046 20.6831 38.6256 22.6164C38.9566 25.5158 39.5304 29.4183 39.5828 29.8782C39.8818 32.4764 39.0831 35.0758 35.592 37.2941C29.0493 41.4503 27.0968 45.332 28.3644 49.6214C30.179 55.7596 34.1991 60.3409 51.2024 56.2102C68.2056 52.0794 69.1601 46.2911 67.3456 40.1529C66.0767 35.8658 62.2444 33.388 54.2858 32.7544Z" fill="#E1E8ED"/>
<path d="M39.4243 57.2643C35.9179 55.836 31.9552 53.2332 31.8875 48.4433C31.8134 43.2029 37.0922 40.2224 37.7235 37.191C37.9446 40.7413 34.2068 43.0256 34.2451 47.5537C34.2809 51.6555 35.5473 54.7622 39.4243 57.2643ZM48.3489 56.6886C45.0111 55.1364 40.9475 51.8408 40.0581 47.3058C38.7777 40.7773 41.8024 36.7531 41.0574 31.8161C42.8656 37.491 41.7769 40.2189 42.8924 45.8625C43.6183 49.5345 45.6539 54.5862 48.3489 56.6886ZM61.9798 51.7852C64.2276 48.9588 66.2249 44.908 63.6411 40.7298C60.8144 36.1577 54.5989 35.9689 52.3806 33.6301C54.1478 36.8052 58.6446 37.089 61.1083 41.0275C63.342 44.5964 63.958 47.8618 61.9798 51.7852ZM53.9344 55.331C55.9688 52.4744 57.6709 47.7784 55.9394 43.4473C53.4463 37.213 48.6083 35.0989 46.5305 30.4852C48.0946 36.2202 50.5417 38.0887 52.6885 43.482C54.0839 46.9919 55.1088 52.2891 53.9344 55.331Z" fill="#99AAB5"/>
<defs>
<filter id="filter0_d_495_959" x="0" y="0" width="96" height="96" filterUnits="userSpaceOnUse" color-interpolation-filters="sRGB">
<feFlood flood-opacity="0" result="BackgroundImageFix"/>
<feColorMatrix in="SourceAlpha" type="matrix" values="0 0 0 0 0 0 0 0 0 0 0 0 0 0 0 0 0 0 127 0" result="hardAlpha"/>
<feOffset dy="8"/>
<feGaussianBlur stdDeviation="8"/>
<feColorMatrix type="matrix" values="0 0 0 0 0 0 0 0 0 0 0 0 0 0 0 0 0 0 0.08 0"/>
<feBlend mode="normal" in2="BackgroundImageFix" result="effect1_dropShadow_495_959"/>
<feBlend mode="normal" in="SourceGraphic" in2="effect1_dropShadow_495_959" result="shape"/>
</filter>
</defs>
</svg>
