<svg width="96" height="96" viewBox="0 0 96 96" fill="none" xmlns="http://www.w3.org/2000/svg">
<g filter="url(#filter0_d_495_870)">
<circle cx="48" cy="40" r="32" fill="white"/>
</g>
<path d="M67.0647 50.1833C66.3337 48.9039 65.16 45.004 65.5156 43.494C65.8711 41.9839 66.7775 39.0445 66.0154 36.7184L63.188 28.0914C63.188 28.0914 63.0538 26.409 61.2994 26.8355C58.8762 27.4243 59.4332 29.1224 59.4332 29.1224L60.3222 32.5835L61.7607 35.2923C61.7607 35.2923 60.8891 35.5229 59.8323 32.2991L56.2615 21.4065C56.2615 21.4065 56.1782 19.7409 54.4151 20.1383C52.115 20.6566 52.524 22.4912 52.524 22.4912L55.8338 32.5879C55.334 32.6439 55.2668 32.8152 55.2618 32.8017L51.65 21.7804C51.65 21.7804 51.7482 20.145 49.9665 20.4607C47.5793 20.8827 47.8591 22.789 47.8591 22.789L51.5132 33.8159C51.517 33.8293 50.9177 33.9905 50.9251 34.0129L47.8094 24.505C47.8094 24.505 47.8827 22.7733 46.1247 23.1852C43.6156 23.7729 44.062 25.5829 44.062 25.5829L47.3891 35.7132C47.419 35.8061 46.8296 35.9662 46.8682 36.0826L44.481 28.7989C44.481 28.7989 44.5792 27.1635 42.7963 27.4802C40.5123 27.8866 40.9959 29.7257 40.9959 29.7257L44.8515 41.4903L44.8975 41.478C44.8726 41.4836 44.9895 42.0086 45.1089 42.2738C45.8598 43.9417 46.8433 45.3252 47.9983 46.4222C48.0344 46.5275 48.0953 46.6304 48.201 46.7323C49.4058 47.892 52.4233 51.5086 53.5784 55.2283C54.3008 57.5544 58.819 56.2514 59.8273 55.8507C61.1676 55.3167 59.0304 51.8098 58.8911 51.0251C58.7519 50.2404 59.6595 49.3662 60.2538 50.4542C60.8493 51.5422 61.057 54.9608 62.314 54.747C63.5722 54.5332 65.9047 53.4373 66.7377 52.6706C67.2848 52.1646 67.7958 51.4628 67.0647 50.1833Z" fill="#292F33"/>
<path d="M67.6366 49.9691C66.9055 48.6897 65.7318 44.7898 66.0874 43.2797C66.443 41.7697 67.3493 38.8302 66.5872 36.5042L63.7599 27.8783C63.7599 27.8783 63.2464 26.3101 61.502 26.7724C59.7613 27.2358 60.2748 28.804 60.2748 28.804L61.3764 32.1655L62.3313 35.0781C62.3313 35.0781 61.4597 35.3087 60.4029 32.0838L56.8321 21.1912C56.8321 21.1912 56.3173 19.623 54.5754 20.0853C52.8335 20.5487 53.347 22.1169 53.347 22.1169L56.7226 32.4185C56.7152 32.3961 55.8362 32.5998 55.8312 32.5864L52.2193 21.5651C52.2193 21.5651 51.7058 19.9957 49.9627 20.4591C48.2208 20.9226 48.7343 22.4908 48.7343 22.4908L52.3461 33.5132C52.3499 33.5267 51.4858 33.7763 51.4932 33.7987L48.3774 24.2907C48.3774 24.2907 47.8627 22.7225 46.1208 23.1848C44.3789 23.6482 44.8924 25.2165 44.8924 25.2165L48.2059 35.3244C48.2357 35.4173 47.399 35.7531 47.4375 35.8684L45.0503 28.5846C45.0503 28.5846 44.5356 27.0164 42.7937 27.4798C41.0518 27.9432 41.5653 29.5115 41.5653 29.5115L45.4221 41.2761L45.4681 41.2638C45.4432 41.2694 45.5601 41.7943 45.6794 42.0596C46.4304 43.7275 47.4139 45.111 48.5689 46.2069C48.605 46.3121 48.6659 46.4162 48.7716 46.517C49.9764 47.6766 52.9939 51.2933 54.149 55.013C54.8713 57.339 59.3896 56.0361 60.3979 55.6353C61.7382 55.1014 59.6009 51.5944 59.4617 50.8097C59.3224 50.0262 60.2301 49.1508 60.8244 50.2389C61.4199 51.3269 61.6276 54.7454 62.8846 54.5317C64.1428 54.3179 66.4753 53.222 67.3083 52.4552C67.8566 51.9504 68.3689 51.2485 67.6366 49.9691Z" fill="#66757F"/>
<path d="M62.5998 48.9841C61.2446 48.2218 58.0207 45.4099 57.4686 43.9491C56.9166 42.4884 56.0264 39.5444 54.0495 37.8967L46.7201 31.7838C46.7201 31.7838 45.6496 30.4003 44.3839 31.5734C42.6358 33.1942 44.0793 34.3976 44.0793 34.3976L46.8096 36.962L49.5835 38.6277C49.5835 38.6277 48.9655 39.2276 46.2253 36.943L36.9699 29.2249C36.9699 29.2249 35.9517 27.8324 34.6636 28.9854C32.9814 30.4898 34.3739 31.8779 34.3739 31.8779L42.9516 39.0317C42.5537 39.3094 42.5935 39.4885 42.5811 39.4784L33.2176 31.6696C33.2176 31.6696 32.3734 30.2189 31.0206 31.3103C29.2091 32.7722 30.532 34.2811 30.532 34.2811L39.9353 42.0764C39.9465 42.0854 39.5225 42.5007 39.5411 42.5163L31.4645 35.78C31.4645 35.78 30.5444 34.2588 29.2675 35.4218C27.4448 37.0818 28.8572 38.4318 28.8572 38.4318L37.471 45.6058C37.5493 45.6707 37.1341 46.0804 37.2323 46.1633L31.0443 41.0018C31.0443 41.0018 30.2 39.5511 28.8473 40.6436C27.1153 42.0451 28.575 43.4018 28.575 43.4018C28.575 43.4018 38.355 51.5441 38.5701 51.7377C38.7852 51.9303 39.2365 52.2929 39.2365 52.2929C40.8765 53.5377 42.2217 54.0123 43.9587 54.5664C44.1526 54.6291 44.2782 54.6626 44.4262 54.7007C46.1208 55.1428 50.7671 56.8622 53.8717 59.5263C55.8138 61.1919 58.9569 57.9928 59.5947 57.1846C60.4439 56.1089 56.6145 54.0783 56.05 53.4683C55.4855 52.8582 55.7678 51.6896 56.8967 52.35C58.0256 53.0104 60.1455 55.8536 61.1054 55.0902C62.0652 54.3279 63.4478 52.312 63.7288 51.2698C63.9128 50.5848 63.9538 49.7464 62.5998 48.9841Z" fill="#66757F"/>
<path d="M62.9709 48.5363C61.6157 47.774 58.393 44.9622 57.8397 43.5014C57.2877 42.0406 56.3975 39.0967 54.4206 37.4489L47.0912 31.3361C47.0912 31.3361 45.7583 30.2245 44.5237 31.4245C43.2903 32.6245 44.6232 33.7349 44.6232 33.7349L47.4791 36.1169L49.9546 38.181C49.9546 38.181 49.3366 38.781 46.5963 36.4964L37.341 28.7783C37.341 28.7783 36.0082 27.6668 34.7736 28.8667C33.5402 30.0667 34.8718 31.1782 34.8718 31.1782L43.6235 38.4765C43.6049 38.4609 42.9646 39.0407 42.9522 39.0306L33.5887 31.2219C33.5887 31.2219 32.2558 30.1103 31.0212 31.3103C29.7866 32.5103 31.1194 33.6207 31.1194 33.6207L40.4842 41.4305C40.4953 41.4395 39.8936 42.0529 39.9122 42.0686L31.8356 35.3333C31.8356 35.3333 30.5027 34.2218 29.2681 35.4218C28.0335 36.6217 29.3663 37.7333 29.3663 37.7333L37.954 44.895C38.0323 44.961 37.5039 45.6349 37.6021 45.7166L31.4141 40.5563C31.4141 40.5563 30.0813 39.4448 28.8466 40.6459C27.612 41.8458 28.9449 42.9574 28.9449 42.9574L38.9399 51.2933C38.9399 51.2933 39.3527 51.675 39.6064 51.8485C41.1978 52.9365 42.6451 53.6429 44.2576 54.0985C44.4155 54.1455 44.648 54.2182 44.796 54.2563C46.4907 54.6984 51.137 56.4178 54.2415 59.0819C56.1836 60.7486 59.3267 57.5484 59.9646 56.7402C60.8138 55.6645 56.9843 53.6339 56.4199 53.0239C55.8554 52.4138 56.1376 51.2452 57.2666 51.9056C58.3955 52.566 60.5154 55.4092 61.4752 54.6458C62.4351 53.8835 63.8176 51.8675 64.0986 50.8254C64.2839 50.1381 64.3249 49.2986 62.9709 48.5363Z" fill="#99AAB5"/>
<path d="M49.3637 50.7739C49.2804 50.7739 49.1946 50.7582 49.1126 50.7258L40.9949 47.4986C40.6816 47.3744 40.5386 47.0441 40.6779 46.7609C40.8171 46.4789 41.1826 46.3513 41.4985 46.4755L49.6161 49.7027C49.9294 49.8269 50.0724 50.1571 49.9332 50.4403C49.83 50.6496 49.6012 50.7739 49.3637 50.7739ZM52.4683 47.4191C52.3104 47.4191 52.1537 47.3654 52.0319 47.2579L45.5007 41.4742C45.2558 41.2581 45.2521 40.9033 45.4933 40.6828C45.7332 40.4622 46.1274 40.4589 46.3723 40.6761L52.9022 46.4598C53.1472 46.6759 53.1496 47.0307 52.9097 47.2512C52.7903 47.3632 52.6287 47.4191 52.4683 47.4191ZM50.944 49.0456C50.8221 49.0456 50.7015 49.0142 50.5946 48.9482L42.8425 44.2009C42.5578 44.0274 42.4844 43.6793 42.6784 43.4241C42.8711 43.1678 43.259 43.104 43.5425 43.2763L51.2946 48.0236C51.5781 48.1971 51.6514 48.5452 51.4587 48.8004C51.3381 48.9605 51.1417 49.0456 50.944 49.0456Z" fill="#66757F"/>
<defs>
<filter id="filter0_d_495_870" x="0" y="0" width="96" height="96" filterUnits="userSpaceOnUse" color-interpolation-filters="sRGB">
<feFlood flood-opacity="0" result="BackgroundImageFix"/>
<feColorMatrix in="SourceAlpha" type="matrix" values="0 0 0 0 0 0 0 0 0 0 0 0 0 0 0 0 0 0 127 0" result="hardAlpha"/>
<feOffset dy="8"/>
<feGaussianBlur stdDeviation="8"/>
<feColorMatrix type="matrix" values="0 0 0 0 0 0 0 0 0 0 0 0 0 0 0 0 0 0 0.08 0"/>
<feBlend mode="normal" in2="BackgroundImageFix" result="effect1_dropShadow_495_870"/>
<feBlend mode="normal" in="SourceGraphic" in2="effect1_dropShadow_495_870" result="shape"/>
</filter>
</defs>
</svg>
