<svg width="96" height="96" viewBox="0 0 96 96" fill="none" xmlns="http://www.w3.org/2000/svg">
<g filter="url(#filter0_d_495_881)">
<circle cx="48" cy="40" r="32" fill="white"/>
</g>
<path d="M40.657 22.6843C47.8483 21.2209 50.0378 24.1361 53.5913 22.7807C57.1448 21.4252 53.6945 26.0172 52.7645 26.8069C51.8323 27.5965 43.7299 32.3263 40.2164 30.5921C36.7029 28.8578 36.6851 23.4923 40.657 22.6843Z" fill="#5C913B"/>
<path d="M44.6477 37.2156C44.3103 37.2156 43.9763 37.0572 43.7588 36.7565C42.9964 35.7052 42.3072 34.5127 41.5781 33.2491C39.0611 28.8935 36.2079 23.9549 28.869 22.2677C28.2709 22.13 27.8936 21.5171 28.0267 20.8985C28.1599 20.2787 28.7525 19.8908 29.3507 20.0274C37.6229 21.928 40.8723 27.553 43.4836 32.0727C44.1827 33.2824 44.8419 34.4244 45.5344 35.3793C45.9028 35.8865 45.803 36.6062 45.3125 36.9861C45.1127 37.141 44.8796 37.2156 44.6477 37.2156Z" fill="#77B255"/>
<path d="M66.0653 55.0444C66.0675 55.0249 66.062 55.0122 66.062 54.995C69.1405 48.8719 68.9995 37.6495 62.3487 30.7701C55.911 24.1133 47.1671 24.0892 41.5217 26.1023C39.7694 26.807 38.2845 26.1781 37.288 27.2099C36.3103 28.221 36.8984 30.3305 36.4956 31.593C32.9788 37.5634 32.7169 46.5421 39.4787 53.534C44.9853 59.229 51.0624 61.3867 61.6518 59.1039C61.654 59.1016 61.6573 59.1027 61.6607 59.1016C62.9347 58.8514 64.9345 59.7018 65.6181 58.9937C66.8222 57.7484 65.961 56.2874 66.0653 55.0444Z" fill="#FFCC4D"/>
<path d="M37.1087 26.4076C37.1087 26.4076 32.37 25.7304 29.499 31.6859C26.628 37.6403 30.1449 42.1589 29.8208 46.208C29.4957 50.2595 31.5587 47.6599 32.7295 45.6973C33.9003 43.7347 37.4238 40.0792 38.2095 35.0591C38.9942 30.0367 38.1319 27.6471 37.1087 26.4076Z" fill="#77B255"/>
<defs>
<filter id="filter0_d_495_881" x="0" y="0" width="96" height="96" filterUnits="userSpaceOnUse" color-interpolation-filters="sRGB">
<feFlood flood-opacity="0" result="BackgroundImageFix"/>
<feColorMatrix in="SourceAlpha" type="matrix" values="0 0 0 0 0 0 0 0 0 0 0 0 0 0 0 0 0 0 127 0" result="hardAlpha"/>
<feOffset dy="8"/>
<feGaussianBlur stdDeviation="8"/>
<feColorMatrix type="matrix" values="0 0 0 0 0 0 0 0 0 0 0 0 0 0 0 0 0 0 0.08 0"/>
<feBlend mode="normal" in2="BackgroundImageFix" result="effect1_dropShadow_495_881"/>
<feBlend mode="normal" in="SourceGraphic" in2="effect1_dropShadow_495_881" result="shape"/>
</filter>
</defs>
</svg>
