<svg width="82" height="23" viewBox="0 0 82 23" fill="none" xmlns="http://www.w3.org/2000/svg">
<path d="M3.9375 11.7578C3.67188 11.9766 3.52344 12.3672 3.49219 12.9297C3.47656 13.4766 3.57031 14.0391 3.77344 14.6172C3.99219 15.1797 4.32031 15.6797 4.75781 16.1172C5.19531 16.5547 5.74219 16.7734 6.39844 16.7734C6.82031 16.7734 7.17969 16.6719 7.47656 16.4688C7.78906 16.2656 8.03906 16.0156 8.22656 15.7188C8.42969 15.4062 8.57812 15.0625 8.67188 14.6875C8.76562 14.3125 8.8125 13.9453 8.8125 13.5859C8.8125 13.0703 8.71094 12.6406 8.50781 12.2969C8.32031 11.9531 8.0625 11.6562 7.73438 11.4062C7.42188 11.1406 7.05469 10.9219 6.63281 10.75C6.22656 10.5625 5.8125 10.375 5.39062 10.1875C5 10.0312 4.53125 9.83594 3.98438 9.60156C3.4375 9.35156 2.91406 9.03125 2.41406 8.64062C1.91406 8.23438 1.48438 7.74219 1.125 7.16406C0.78125 6.57031 0.609375 5.84375 0.609375 4.98438C0.609375 4.42188 0.757812 3.85156 1.05469 3.27344C1.35156 2.69531 1.77344 2.17188 2.32031 1.70312C2.86719 1.21875 3.52344 0.828125 4.28906 0.53125C5.07031 0.234375 5.94531 0.0859375 6.91406 0.0859375C7.86719 0.0859375 8.64062 0.171875 9.23438 0.34375C9.82812 0.515625 10.2891 0.742188 10.6172 1.02344C10.9453 1.28906 11.1641 1.58594 11.2734 1.91406C11.3984 2.22656 11.4609 2.52344 11.4609 2.80469C11.4609 3.08594 11.375 3.375 11.2031 3.67188C11.0312 3.95312 10.8281 4.21875 10.5938 4.46875C10.3594 4.70312 10.1172 4.91406 9.86719 5.10156C9.61719 5.27344 9.41406 5.39062 9.25781 5.45312C9.33594 5.25 9.41406 4.96875 9.49219 4.60938C9.57031 4.25 9.54688 3.89062 9.42188 3.53125C9.3125 3.17188 9.03906 2.85938 8.60156 2.59375C8.17969 2.32812 7.49219 2.19531 6.53906 2.19531C5.99219 2.19531 5.46094 2.28125 4.94531 2.45312C4.42969 2.625 3.96875 2.85156 3.5625 3.13281C3.17188 3.39844 2.85938 3.70312 2.625 4.04688C2.39062 4.39062 2.27344 4.74219 2.27344 5.10156C2.27344 5.44531 2.39062 5.76562 2.625 6.0625C2.875 6.34375 3.20312 6.61719 3.60938 6.88281C4.03125 7.13281 4.50781 7.38281 5.03906 7.63281C5.58594 7.88281 6.15625 8.13281 6.75 8.38281C7.32812 8.63281 7.89844 8.90625 8.46094 9.20312C9.02344 9.48438 9.52344 9.8125 9.96094 10.1875C10.4141 10.5625 10.7734 10.9844 11.0391 11.4531C11.3047 11.9219 11.4375 12.4609 11.4375 13.0703C11.4375 13.7266 11.3125 14.3594 11.0625 14.9688C10.8281 15.5625 10.4844 16.0859 10.0312 16.5391C9.59375 16.9922 9.05469 17.3516 8.41406 17.6172C7.77344 17.8984 7.04688 18.0391 6.23438 18.0391C5.51562 18.0391 4.83594 17.9219 4.19531 17.6875C3.55469 17.4531 2.99219 17.1484 2.50781 16.7734C2.03906 16.3984 1.66406 15.9844 1.38281 15.5312C1.10156 15.0781 0.960938 14.6328 0.960938 14.1953C0.960938 13.7266 1.0625 13.3281 1.26562 13C1.48438 12.6719 1.75 12.4141 2.0625 12.2266C2.375 12.0234 2.69531 11.8828 3.02344 11.8047C3.36719 11.7266 3.67188 11.7109 3.9375 11.7578ZM21.75 5.57031C21.5781 5.53906 21.3438 5.50781 21.0469 5.47656C20.7656 5.44531 20.4766 5.42188 20.1797 5.40625C19.8359 5.39062 19.4688 5.38281 19.0781 5.38281C18.6875 5.35156 18.1953 5.35156 17.6016 5.38281C17.0234 5.39844 16.4141 5.40625 15.7734 5.40625C15.7578 5.8125 15.7266 6.22656 15.6797 6.64844C15.6484 7.07031 15.6172 7.48438 15.5859 7.89062C15.5078 8.64062 15.4375 9.40625 15.375 10.1875C15.3281 10.9688 15.3047 11.7109 15.3047 12.4141C15.3047 13.1172 15.3438 13.7578 15.4219 14.3359C15.5156 14.8984 15.6797 15.3438 15.9141 15.6719C15.7266 15.8125 15.5234 15.9219 15.3047 16C15.0859 16.0625 14.8906 16.1094 14.7188 16.1406C14.5156 16.1875 14.3125 16.2109 14.1094 16.2109C13.9219 16.2109 13.7656 16.1484 13.6406 16.0234C13.5156 15.8984 13.4453 15.6797 13.4297 15.3672C13.3984 14.8359 13.3906 14.3047 13.4062 13.7734C13.4375 13.2266 13.4688 12.6562 13.5 12.0625C13.5469 11.4688 13.5938 10.8359 13.6406 10.1641C13.6875 9.47656 13.7344 8.72656 13.7812 7.91406C13.8281 7.07031 13.8516 6.25 13.8516 5.45312C13.2578 5.46875 12.7578 5.47656 12.3516 5.47656C11.9453 5.47656 11.7188 5.46875 11.6719 5.45312C11.625 5.42188 11.5703 5.35156 11.5078 5.24219C11.4453 5.14844 11.3672 5.00781 11.2734 4.82031C11.1641 4.63281 11.0312 4.36719 10.875 4.02344C11.1719 4.02344 11.5 4.02344 11.8594 4.02344C12.2031 4.02344 12.5234 4.01562 12.8203 4C13.1641 3.98438 13.5078 3.96875 13.8516 3.95312C13.8359 3.70312 13.8281 3.4375 13.8281 3.15625C13.8125 2.9375 13.8047 2.69531 13.8047 2.42969C13.8047 2.14844 13.7969 1.89062 13.7812 1.65625C13.7812 1.5625 13.8906 1.45312 14.1094 1.32812C14.3438 1.1875 14.5938 1.0625 14.8594 0.953125C15.125 0.84375 15.3672 0.773438 15.5859 0.742188C15.8203 0.710937 15.9375 0.765625 15.9375 0.90625C15.9375 1.04688 15.9297 1.39062 15.9141 1.9375C15.9141 2.46875 15.8984 3.11719 15.8672 3.88281C16.0234 3.88281 16.1406 3.875 16.2188 3.85938C17.0469 3.82812 17.7109 3.79688 18.2109 3.76562C18.7266 3.71875 19.1484 3.71094 19.4766 3.74219C19.8047 3.77344 20.0938 3.85156 20.3438 3.97656C20.5938 4.10156 20.875 4.30469 21.1875 4.58594C21.2969 4.67969 21.3906 4.78125 21.4688 4.89062C21.5469 4.98438 21.6094 5.09375 21.6562 5.21875C21.7188 5.32812 21.75 5.44531 21.75 5.57031ZM24.5859 14.8047C24.6172 14.9141 24.6641 15.0156 24.7266 15.1094C24.7734 15.1875 24.8359 15.2656 24.9141 15.3438C25.0078 15.4062 25.1172 15.4453 25.2422 15.4609C25.1328 15.6797 25.0234 15.8281 24.9141 15.9062C24.8516 15.9531 24.7969 15.9844 24.75 16C24.6094 16.0469 24.3984 16.0703 24.1172 16.0703C23.8359 16.0703 23.5625 15.9844 23.2969 15.8125C23.2031 15.7344 23.1172 15.6172 23.0391 15.4609C22.9609 15.3359 22.8906 15.1641 22.8281 14.9453C22.7812 14.7109 22.7422 14.4141 22.7109 14.0547C22.4922 14.5234 22.2422 14.8984 21.9609 15.1797C21.6953 15.4453 21.4297 15.6406 21.1641 15.7656C20.8672 15.9375 20.5625 16.0391 20.25 16.0703C19.8594 16.1016 19.4844 16.0391 19.125 15.8828C18.7812 15.7109 18.4844 15.4609 18.2344 15.1328C18 14.7891 17.8203 14.375 17.6953 13.8906C17.5703 13.4062 17.5312 12.8594 17.5781 12.25C17.625 11.6094 17.75 11.0391 17.9531 10.5391C18.1562 10.0391 18.3984 9.59375 18.6797 9.20312C18.9609 8.8125 19.2578 8.48438 19.5703 8.21875C19.8828 7.9375 20.1797 7.71094 20.4609 7.53906C20.7578 7.35156 21.0078 7.21875 21.2109 7.14062C21.4297 7.04688 21.5703 6.99219 21.6328 6.97656C21.8047 6.92969 21.9531 6.91406 22.0781 6.92969C22.2031 6.94531 22.3125 7.01562 22.4062 7.14062C22.4375 7.1875 22.4766 7.24219 22.5234 7.30469C22.5547 7.36719 22.5938 7.45312 22.6406 7.5625C22.6875 7.65625 22.7266 7.76562 22.7578 7.89062C22.3828 8.0625 22.0312 8.25781 21.7031 8.47656C21.375 8.67969 21.0703 8.92969 20.7891 9.22656C20.5234 9.52344 20.2891 9.88281 20.0859 10.3047C19.8828 10.7266 19.7266 11.2422 19.6172 11.8516C19.4609 12.6172 19.5 13.2344 19.7344 13.7031C19.9844 14.1719 20.3203 14.3672 20.7422 14.2891C20.9922 14.2109 21.2344 14.0625 21.4688 13.8438C21.6719 13.6562 21.8828 13.375 22.1016 13C22.3359 12.625 22.5547 12.1094 22.7578 11.4531C22.8359 10.5156 22.8984 9.78125 22.9453 9.25C23.0078 8.70312 23.0625 8.28906 23.1094 8.00781C23.1719 7.67969 23.2188 7.46094 23.25 7.35156C23.2969 7.27344 23.3906 7.20312 23.5312 7.14062C23.6719 7.0625 23.8281 7 24 6.95312C24.1719 6.90625 24.3281 6.88281 24.4688 6.88281C24.6094 6.86719 24.7031 6.86719 24.75 6.88281C24.7812 6.89844 24.7969 7.09375 24.7969 7.46875C24.7969 7.82812 24.7812 8.28906 24.75 8.85156C24.7344 9.39844 24.7109 10 24.6797 10.6562C24.6484 11.2969 24.6172 11.9062 24.5859 12.4844C24.5703 13.0625 24.5547 13.5703 24.5391 14.0078C24.5391 14.4297 24.5547 14.6953 24.5859 14.8047ZM33.5391 7C33.5703 8.375 33.5938 9.57812 33.6094 10.6094C33.625 11.6406 33.6406 12.5078 33.6562 13.2109C33.6719 14.0391 33.6797 14.75 33.6797 15.3438C33.6953 16.0781 33.6328 16.8359 33.4922 17.6172C33.3672 18.4141 33.1562 19.1406 32.8594 19.7969C32.5625 20.4531 32.1719 20.9922 31.6875 21.4141C31.2031 21.8359 30.6172 22.0469 29.9297 22.0469C29.1016 22.0469 28.4688 21.875 28.0312 21.5312C27.5938 21.2031 27.2734 20.8281 27.0703 20.4062C26.8672 19.9844 26.75 19.5859 26.7188 19.2109C26.6875 18.8516 26.6719 18.6406 26.6719 18.5781C26.6719 18.4531 26.75 18.3125 26.9062 18.1562C27.0625 18 27.2969 17.8594 27.6094 17.7344C27.7344 17.6875 27.8594 17.6484 27.9844 17.6172C28.0938 17.5859 28.2031 17.5625 28.3125 17.5469C28.4219 17.5312 28.5234 17.5391 28.6172 17.5703C28.4609 17.8516 28.3672 18.1719 28.3359 18.5312C28.3203 18.8906 28.3672 19.2266 28.4766 19.5391C28.6016 19.8672 28.7812 20.1406 29.0156 20.3594C29.25 20.5781 29.5469 20.6875 29.9062 20.6875C30.4062 20.6875 30.7969 20.5391 31.0781 20.2422C31.375 19.9609 31.5938 19.6094 31.7344 19.1875C31.8906 18.7656 31.9844 18.3203 32.0156 17.8516C32.0625 17.3828 32.0859 16.9688 32.0859 16.6094C32.0859 16.3281 32.0781 15.9688 32.0625 15.5312C32.0625 15.0781 32.0391 14.5781 31.9922 14.0312C31.8047 14.3438 31.5859 14.6484 31.3359 14.9453C31.0859 15.2266 30.8203 15.4766 30.5391 15.6953C30.2578 15.9141 29.9688 16.0859 29.6719 16.2109C29.3906 16.3516 29.1094 16.4219 28.8281 16.4219C28.3438 16.4219 27.9531 16.2734 27.6562 15.9766C27.3594 15.6641 27.1328 15.2812 26.9766 14.8281C26.8203 14.3594 26.7109 13.8594 26.6484 13.3281C26.6016 12.7812 26.5781 12.2812 26.5781 11.8281C26.5781 11.4844 26.5938 11.0703 26.625 10.5859C26.6562 10.0859 26.6953 9.60938 26.7422 9.15625C26.7891 8.70312 26.8438 8.3125 26.9062 7.98438C26.9844 7.64062 27.0625 7.44531 27.1406 7.39844C27.5938 7.13281 28.0391 6.98438 28.4766 6.95312C28.9141 6.92188 29.2422 6.97656 29.4609 7.11719C29.2734 7.25781 29.1172 7.49219 28.9922 7.82031C28.8672 8.14844 28.7656 8.51562 28.6875 8.92188C28.6094 9.3125 28.5547 9.72656 28.5234 10.1641C28.4922 10.5859 28.4766 10.9688 28.4766 11.3125C28.4766 11.5938 28.4844 11.9297 28.5 12.3203C28.5156 12.7109 28.5469 13.0859 28.5938 13.4453C28.6562 13.8047 28.7422 14.1094 28.8516 14.3594C28.9609 14.6094 29.1016 14.7344 29.2734 14.7344C29.6172 14.7344 29.9375 14.6094 30.2344 14.3594C30.5312 14.1094 30.7891 13.7969 31.0078 13.4219C31.2422 13.0469 31.4219 12.6484 31.5469 12.2266C31.6719 11.7891 31.7344 11.3828 31.7344 11.0078V10.8203C31.7031 10.4141 31.6719 10.0312 31.6406 9.67188C31.6094 9.29688 31.5781 8.96094 31.5469 8.66406C31.5312 8.36719 31.5156 8.125 31.5 7.9375C31.5 7.73438 31.5 7.60156 31.5 7.53906C31.5 7.38281 31.6016 7.24219 31.8047 7.11719C32.0234 6.99219 32.2578 6.90625 32.5078 6.85938C32.7734 6.79688 33.0078 6.77344 33.2109 6.78906C33.4297 6.80469 33.5391 6.875 33.5391 7ZM41.3906 10.9141C41.2031 10.9766 41.0078 10.9688 40.8047 10.8906C40.6172 10.7969 40.4453 10.6562 40.2891 10.4688C40.1328 10.2812 40.0078 10.0625 39.9141 9.8125C39.8359 9.5625 39.7969 9.29688 39.7969 9.01562C40 8.98438 40.2188 8.95312 40.4531 8.92188C40.6875 8.875 40.9062 8.83594 41.1094 8.80469C41.3438 8.77344 41.5703 8.74219 41.7891 8.71094C41.8047 7.80469 41.8203 6.94531 41.8359 6.13281C41.8672 5.30469 41.8906 4.57031 41.9062 3.92969C41.9375 3.27344 41.9609 2.72656 41.9766 2.28906C42.0078 1.83594 42.0312 1.53125 42.0469 1.375C42.0469 1.29688 42.0859 1.21875 42.1641 1.14062C42.2891 1.04688 42.4688 0.914063 42.7031 0.742188C42.9531 0.570312 43.2344 0.414062 43.5469 0.273438C43.8125 0.164063 43.9844 0.203125 44.0625 0.390625C44.1562 0.5625 44.2031 0.898437 44.2031 1.39844C44.1719 2.10156 44.1406 3.04688 44.1094 4.23438C44.0781 5.42188 44.0469 6.82031 44.0156 8.42969C44.2656 8.39844 44.5078 8.375 44.7422 8.35938C44.9766 8.34375 45.2266 8.32812 45.4922 8.3125C46.2109 8.28125 46.9062 8.24219 47.5781 8.19531C48.2656 8.14844 48.8672 8.14844 49.3828 8.19531C49.4609 5.96094 49.4844 4.28906 49.4531 3.17969C49.4219 2.05469 49.4062 1.39062 49.4062 1.1875C49.4062 1.09375 49.5078 0.984375 49.7109 0.859375C49.9141 0.734375 50.1328 0.625 50.3672 0.53125C50.6172 0.421875 50.8438 0.351563 51.0469 0.320312C51.25 0.273438 51.3594 0.28125 51.375 0.34375C51.3906 0.453125 51.3906 0.726563 51.375 1.16406C51.375 1.60156 51.3672 2.21875 51.3516 3.01562C51.3516 3.79688 51.3516 4.77344 51.3516 5.94531C51.3672 7.11719 51.3984 8.48438 51.4453 10.0469C51.4141 10.7656 51.3984 11.5156 51.3984 12.2969C51.3984 12.9688 51.4141 13.7188 51.4453 14.5469C51.4766 15.375 51.5469 16.2109 51.6562 17.0547C51.4531 17.2266 51.2344 17.3594 51 17.4531C50.7656 17.5469 50.5391 17.625 50.3203 17.6875C50.0703 17.75 49.8203 17.7969 49.5703 17.8281C49.4297 17.8438 49.3125 17.8125 49.2188 17.7344C49.1406 17.6719 49.0859 17.5859 49.0547 17.4766C49.0234 17.3828 49 17.2812 48.9844 17.1719C48.9844 17.0625 48.9844 16.9609 48.9844 16.8672C48.9844 16.6641 48.9844 16.4688 48.9844 16.2812C49 16.1094 49.0156 15.9688 49.0312 15.8594C49.0625 15.1875 49.1016 14.375 49.1484 13.4219C49.1953 12.4688 49.2422 11.4062 49.2891 10.2344C49.1797 10.2188 49.0781 10.2109 48.9844 10.2109C48.8906 10.1953 48.7812 10.1797 48.6562 10.1641C47.9531 10.1172 47.1875 10.1172 46.3594 10.1641C45.5469 10.2109 44.75 10.2891 43.9688 10.3984C43.9531 11.1641 43.9531 11.8906 43.9688 12.5781C43.9844 13.25 44 13.8672 44.0156 14.4297C44.0469 14.9766 44.0781 15.4531 44.1094 15.8594C44.1406 16.25 44.1719 16.5391 44.2031 16.7266C44.2188 16.8828 44.1953 16.9922 44.1328 17.0547C44.0703 17.1328 43.9766 17.2344 43.8516 17.3594C43.7422 17.4844 43.5938 17.6016 43.4062 17.7109C43.2344 17.8359 43.0234 17.9375 42.7734 18.0156C42.5234 18.1094 42.2344 18.1562 41.9062 18.1562C41.75 18.1562 41.6719 18.0859 41.6719 17.9453C41.6719 17.7422 41.6719 17.4219 41.6719 16.9844C41.6875 16.5469 41.6953 16.0156 41.6953 15.3906C41.7109 14.7656 41.7188 14.0703 41.7188 13.3047C41.7344 12.5234 41.75 11.6953 41.7656 10.8203C41.6875 10.8359 41.6172 10.8516 41.5547 10.8672C41.5078 10.8828 41.4531 10.8984 41.3906 10.9141ZM60.0703 11.9688C60.0391 12.5781 59.9297 13.1406 59.7422 13.6562C59.5703 14.1719 59.3281 14.625 59.0156 15.0156C58.7031 15.3906 58.3281 15.6875 57.8906 15.9062C57.4688 16.125 57 16.2422 56.4844 16.2578C56.0312 16.2734 55.6016 16.1641 55.1953 15.9297C54.8047 15.6953 54.4609 15.3672 54.1641 14.9453C53.8672 14.5234 53.6406 14.0234 53.4844 13.4453C53.3438 12.8516 53.3047 12.2109 53.3672 11.5234C53.4141 10.7266 53.5625 10.0469 53.8125 9.48438C54.0625 8.90625 54.3281 8.42969 54.6094 8.05469C54.8906 7.67969 55.1484 7.40625 55.3828 7.23438C55.6328 7.04688 55.7891 6.9375 55.8516 6.90625C55.9609 6.85938 56.0625 6.85156 56.1562 6.88281C56.25 6.89844 56.3516 6.92188 56.4609 6.95312C56.4922 6.96875 56.5234 7.00781 56.5547 7.07031C56.6172 7.17969 56.6562 7.38281 56.6719 7.67969C56.75 7.50781 56.8516 7.36719 56.9766 7.25781C57.1016 7.14844 57.2266 7.07031 57.3516 7.02344C57.5078 6.96094 57.6641 6.92188 57.8203 6.90625C57.9297 6.89062 58.1172 6.97656 58.3828 7.16406C58.6641 7.35156 58.9297 7.64844 59.1797 8.05469C59.4453 8.46094 59.6719 8.99219 59.8594 9.64844C60.0469 10.2891 60.1172 11.0625 60.0703 11.9688ZM58.4766 11.6875C58.4922 11.3125 58.4766 10.9375 58.4297 10.5625C58.3984 10.1719 58.3359 9.82031 58.2422 9.50781C58.1641 9.17969 58.0625 8.92188 57.9375 8.73438C57.8125 8.53125 57.6875 8.42969 57.5625 8.42969C57.4219 8.46094 57.2656 8.53125 57.0938 8.64062C56.9531 8.73438 56.7969 8.88281 56.625 9.08594C56.4531 9.28906 56.2891 9.57812 56.1328 9.95312C56.1172 9.90625 56.1016 9.82031 56.0859 9.69531C56.0703 9.58594 56.0547 9.44531 56.0391 9.27344C56.0391 9.08594 56.0547 8.83594 56.0859 8.52344C55.8672 8.78906 55.6953 9.10156 55.5703 9.46094C55.4609 9.82031 55.375 10.1641 55.3125 10.4922C55.25 10.8828 55.2031 11.2734 55.1719 11.6641C55.1562 12.0859 55.1719 12.5 55.2188 12.9062C55.2812 13.3125 55.375 13.6719 55.5 13.9844C55.6406 14.2969 55.8047 14.5469 55.9922 14.7344C56.1797 14.9219 56.4062 15.0078 56.6719 14.9922C56.9375 14.9766 57.1719 14.8672 57.375 14.6641C57.5781 14.4609 57.7578 14.2031 57.9141 13.8906C58.0703 13.5781 58.1953 13.2266 58.2891 12.8359C58.3828 12.4453 58.4453 12.0625 58.4766 11.6875ZM66.5156 8.6875C66.3906 8.6875 66.25 8.75781 66.0938 8.89844C65.9531 9.02344 65.8125 9.20312 65.6719 9.4375C65.5312 9.65625 65.3906 9.90625 65.25 10.1875C65.1094 10.4531 64.9844 10.7266 64.875 11.0078C64.6094 11.6641 64.3516 12.3359 64.1016 13.0234C63.8516 13.7109 63.7031 14.3047 63.6562 14.8047C63.6406 14.8516 63.6328 14.8984 63.6328 14.9453C63.6328 14.9766 63.6328 15.0078 63.6328 15.0391C63.6172 15.0703 63.6094 15.1172 63.6094 15.1797C63.5781 15.3984 63.5312 15.5781 63.4688 15.7188C63.4219 15.8438 63.3125 15.9297 63.1406 15.9766C62.9531 16.0078 62.7656 16.0312 62.5781 16.0469C62.3906 16.0625 62.2109 16.0469 62.0391 16C61.9297 15.9688 61.8438 15.9141 61.7812 15.8359C61.7344 15.7422 61.6953 15.6406 61.6641 15.5312C61.6484 15.4062 61.6328 15.2891 61.6172 15.1797C61.6172 15.0703 61.6172 14.9766 61.6172 14.8984C61.6172 14.8047 61.625 14.5156 61.6406 14.0312C61.6562 13.5312 61.6719 12.9688 61.6875 12.3438C61.7031 11.7188 61.7109 11.1094 61.7109 10.5156C61.7109 9.90625 61.7031 9.44531 61.6875 9.13281C61.6562 8.91406 61.625 8.71094 61.5938 8.52344C61.5625 8.35156 61.5234 8.17969 61.4766 8.00781C61.4453 7.83594 61.3906 7.6875 61.3125 7.5625C61.4844 7.46875 61.6562 7.39062 61.8281 7.32812C62 7.26562 62.1562 7.21875 62.2969 7.1875C62.4688 7.14062 62.625 7.10938 62.7656 7.09375C63.1406 7.0625 63.4297 7.0625 63.6328 7.09375C63.8516 7.125 63.9609 7.28906 63.9609 7.58594C63.9609 7.85156 63.9375 8.26562 63.8906 8.82812C63.8594 9.375 63.8203 10.1406 63.7734 11.125C63.9453 10.7344 64.1484 10.2969 64.3828 9.8125C64.6172 9.3125 64.8672 8.85156 65.1328 8.42969C65.3984 7.99219 65.6719 7.63281 65.9531 7.35156C66.2344 7.05469 66.5 6.90625 66.75 6.90625C66.9219 6.90625 67.1172 6.94531 67.3359 7.02344C67.5703 7.08594 67.7891 7.17969 67.9922 7.30469C68.1953 7.41406 68.375 7.53906 68.5312 7.67969C68.7031 7.82031 68.8203 7.96094 68.8828 8.10156C68.9453 8.25781 68.9844 8.5 69 8.82812C69.0156 9.15625 69.0156 9.52344 69 9.92969C69.125 9.63281 69.2656 9.34375 69.4219 9.0625C69.5781 8.78125 69.7344 8.52344 69.8906 8.28906C70.0625 8.03906 70.2344 7.82812 70.4062 7.65625C70.5781 7.48438 70.7344 7.36719 70.875 7.30469C71.0625 7.22656 71.2891 7.21094 71.5547 7.25781C71.8203 7.30469 72.0781 7.39062 72.3281 7.51562C72.5938 7.625 72.8203 7.75781 73.0078 7.91406C73.2109 8.07031 73.3359 8.21875 73.3828 8.35938C73.4297 8.51562 73.4688 8.75781 73.5 9.08594C73.5312 9.41406 73.5547 9.77344 73.5703 10.1641C73.5859 10.5547 73.5938 10.9609 73.5938 11.3828C73.5938 11.7891 73.5859 12.1484 73.5703 12.4609C73.5391 13.3672 73.5469 14.0859 73.5938 14.6172C73.6406 15.1328 73.8281 15.5156 74.1562 15.7656C73.9375 15.9062 73.7344 16.0078 73.5469 16.0703C73.3594 16.1484 73.1953 16.2031 73.0547 16.2344C72.8828 16.2812 72.7344 16.3047 72.6094 16.3047C72.4375 16.3047 72.2969 16.2578 72.1875 16.1641C72.0781 16.0859 71.9922 15.9766 71.9297 15.8359C71.8672 15.6953 71.8281 15.5391 71.8125 15.3672C71.7969 15.1953 71.7891 15.0234 71.7891 14.8516C71.7891 14.6953 71.7969 14.4375 71.8125 14.0781C71.8438 13.7031 71.8672 13.2812 71.8828 12.8125C71.8984 12.3438 71.8984 11.8672 71.8828 11.3828C71.8672 10.8828 71.8281 10.4297 71.7656 10.0234C71.7188 9.60156 71.6328 9.25781 71.5078 8.99219C71.3828 8.72656 71.2109 8.59375 70.9922 8.59375C70.8047 8.59375 70.625 8.71094 70.4531 8.94531C70.2812 9.16406 70.1172 9.46094 69.9609 9.83594C69.8047 10.1953 69.6641 10.6016 69.5391 11.0547C69.4297 11.4922 69.3281 11.9297 69.2344 12.3672C69.1406 12.8047 69.0703 13.2109 69.0234 13.5859C68.9766 13.9453 68.9531 14.2344 68.9531 14.4531L68.9297 14.2422C68.9297 14.5391 68.9297 14.8125 68.9297 15.0625C68.9453 15.3125 68.9609 15.5625 68.9766 15.8125C68.9922 15.9062 68.9062 15.9844 68.7188 16.0469C68.5312 16.125 68.3203 16.1562 68.0859 16.1406C67.8672 16.1406 67.6641 16.0938 67.4766 16C67.2891 15.9062 67.1953 15.75 67.1953 15.5312C67.1953 15.375 67.1953 15.1406 67.1953 14.8281C67.1953 14.5156 67.1875 14.1641 67.1719 13.7734C67.1719 13.3828 67.1641 12.9766 67.1484 12.5547C67.1484 12.1172 67.1406 11.7031 67.125 11.3125C67.125 11.0156 67.1172 10.7109 67.1016 10.3984C67.1016 10.0859 67.0859 9.80469 67.0547 9.55469C67.0234 9.28906 66.9609 9.07812 66.8672 8.92188C66.7891 8.76562 66.6719 8.6875 66.5156 8.6875ZM78.5156 16.2578C77.4219 16.2578 76.5781 15.8906 75.9844 15.1562C75.3906 14.4219 75.0938 13.4609 75.0938 12.2734C75.0938 11.4453 75.2109 10.6719 75.4453 9.95312C75.6953 9.21875 76.0234 8.58594 76.4297 8.05469C76.8359 7.52344 77.3047 7.10938 77.8359 6.8125C78.3828 6.5 78.9531 6.34375 79.5469 6.34375C80.125 6.34375 80.6172 6.55469 81.0234 6.97656C81.4297 7.38281 81.6328 7.96875 81.6328 8.73438C81.6328 9.23438 81.5234 9.73438 81.3047 10.2344C81.0859 10.7188 80.7969 11.1562 80.4375 11.5469C80.0938 11.9219 79.7109 12.2266 79.2891 12.4609C78.8672 12.6953 78.4609 12.8125 78.0703 12.8125C77.8203 12.8125 77.6094 12.7812 77.4375 12.7188C77.2656 12.6562 77.1094 12.5625 76.9688 12.4375C77.0156 13.3281 77.2109 13.9531 77.5547 14.3125C77.8984 14.6562 78.3438 14.8281 78.8906 14.8281C79.2656 14.8281 79.5938 14.75 79.875 14.5938C80.1719 14.4375 80.4219 14.2578 80.625 14.0547C80.8281 13.8516 80.9922 13.6484 81.1172 13.4453C81.2422 13.2266 81.3281 13.0625 81.375 12.9531C81.4219 12.8594 81.5 12.8125 81.6094 12.8125C81.7344 12.8125 81.7969 12.9062 81.7969 13.0938C81.7969 13.2656 81.7344 13.5312 81.6094 13.8906C81.5 14.2344 81.3125 14.5859 81.0469 14.9453C80.7812 15.2891 80.4375 15.5938 80.0156 15.8594C79.6094 16.125 79.1094 16.2578 78.5156 16.2578ZM79.5938 7.35156C79.5 7.35156 79.3203 7.45312 79.0547 7.65625C78.8047 7.84375 78.5312 8.125 78.2344 8.5C77.9531 8.875 77.6875 9.32812 77.4375 9.85938C77.2031 10.375 77.0547 10.9609 76.9922 11.6172C77.9297 11.3984 78.6719 11.0547 79.2188 10.5859C79.7656 10.1172 80.0391 9.42969 80.0391 8.52344C80.0391 8.07031 79.9844 7.76562 79.875 7.60938C79.7656 7.4375 79.6719 7.35156 79.5938 7.35156Z" fill="#314370"/>
</svg>
