<svg width="24" height="24" viewBox="0 0 24 24" fill="none" xmlns="http://www.w3.org/2000/svg">
<path d="M7.70156 6.69852L9.10799 8.08628C9.2435 8.21999 9.2435 8.43865 9.10799 8.57237L6.97703 10.675H15.6462C15.8378 10.675 15.9947 10.8297 15.9947 11.0189V12.9813C15.9947 13.1703 15.838 13.3252 15.6462 13.3252H6.97703L9.10799 15.4278C9.2435 15.5616 9.2435 15.7802 9.10799 15.9139L7.70156 17.3017C7.56605 17.4354 7.34445 17.4354 7.20893 17.3017L2.10037 12.2607C2.02809 12.1894 1.99555 12.0939 2.00049 12C1.99555 11.9061 2.02809 11.8106 2.10037 11.7393L7.20893 6.69852C7.34445 6.5648 7.56605 6.5648 7.70156 6.69852ZM19.6923 3H11.6484C11.6484 3 11.5396 2.99939 11.4504 3.09328C11.3812 3.16603 11.3812 3.26946 11.3812 3.26946V5.09617C11.3812 5.09617 11.3815 5.17339 11.4568 5.25589C11.5349 5.34124 11.6352 5.34124 11.6352 5.34124H17.6275V18.6588H11.6484C11.6484 18.6588 11.5396 18.6581 11.4504 18.752C11.3812 18.8248 11.3812 18.9282 11.3812 18.9282V20.7549C11.3812 20.7549 11.3815 20.8321 11.4568 20.9146C11.5349 21 11.6352 21 11.6352 21H19.6977C19.8639 21 20 20.8657 20 20.7017V3.30381C20.0002 3.13676 19.8616 3 19.6923 3Z" fill="#DBE3F0"/>
</svg>
