<svg width="20" height="20" viewBox="0 0 20 20" fill="none" xmlns="http://www.w3.org/2000/svg">
<g opacity="0.24">
<path d="M17.3088 14.9845C16.0506 14.6195 14.3989 14.3571 12.5809 14.2292L15.3624 10.0223C16.0709 8.96211 16.4453 7.72523 16.4453 6.44531C16.4453 2.89137 13.5539 0 10 0C6.44605 0 3.55469 2.89137 3.55469 6.44531C3.55469 7.7252 3.92914 8.96207 4.63598 10.0199L7.4191 14.2292C5.60102 14.3571 3.94938 14.6195 2.69125 14.9845C1.58473 15.3055 0 15.9166 0 17.0703C0 18.0179 1.08 18.7668 3.21 19.2962C5.03578 19.7501 7.44719 20 10 20C12.5529 20 14.9642 19.7501 16.79 19.2962C18.92 18.7668 20 18.0179 20 17.0703C20 15.9163 18.4146 15.3054 17.3088 14.9845ZM5.61191 9.37121C5.03269 8.50438 4.72656 7.49262 4.72656 6.44531C4.72656 3.53754 7.09223 1.17188 10 1.17188C12.9078 1.17188 15.2734 3.53754 15.2734 6.44531C15.2734 7.49266 14.9673 8.50441 14.3865 9.37355L10 16.0079L5.61191 9.37121ZM18.3748 17.4772C16.5546 18.5448 12.2968 18.8281 10 18.8281C7.80809 18.8281 3.47516 18.5622 1.6252 17.4772C1.25254 17.2586 1.17188 17.0983 1.17188 17.0703C1.17188 16.986 1.50035 16.5503 3.01777 16.11C4.34855 15.7239 6.16687 15.459 8.16559 15.3582L9.51125 17.3935C9.61973 17.5575 9.80332 17.6562 10 17.6562C10.1967 17.6562 10.3803 17.5575 10.4887 17.3935L11.8344 15.3582C13.8331 15.4591 15.6514 15.7239 16.9822 16.11C18.4996 16.5503 18.8281 16.986 18.8281 17.0703C18.8281 17.0983 18.7475 17.2586 18.3748 17.4772Z" fill="#314370"/>
<path d="M10 3.51562C8.38457 3.51562 7.07031 4.82988 7.07031 6.44531C7.07031 8.06074 8.38457 9.375 10 9.375C11.6154 9.375 12.9297 8.06074 12.9297 6.44531C12.9297 4.82988 11.6154 3.51562 10 3.51562ZM10 8.20312C9.03074 8.20312 8.24219 7.41457 8.24219 6.44531C8.24219 5.47605 9.03074 4.6875 10 4.6875C10.9693 4.6875 11.7578 5.47605 11.7578 6.44531C11.7578 7.41457 10.9693 8.20312 10 8.20312Z" fill="#314370"/>
</g>
</svg>
