<svg width="96" height="96" viewBox="0 0 96 96" fill="none" xmlns="http://www.w3.org/2000/svg">
<g filter="url(#filter0_d_495_912)">
<circle cx="48" cy="40" r="32" fill="white"/>
</g>
<path d="M68 40C68 51.0456 59.0456 60 48 60C36.9556 60 28 51.0456 28 40C28 28.9556 36.9556 20 48 20C59.0456 20 68 28.9556 68 40Z" fill="#FFCC4D"/>
<path d="M35.7787 36.6667C35.4198 36.6667 35.0676 36.4933 34.8532 36.1722C34.5132 35.6611 34.6509 34.9711 35.1609 34.6311C35.3087 34.5333 38.8287 32.2222 43.5554 32.2222C44.1687 32.2222 44.6665 32.72 44.6665 33.3333C44.6665 33.9467 44.1687 34.4445 43.5554 34.4445C39.4943 34.4445 36.4243 36.46 36.3943 36.48C36.2043 36.6067 35.9898 36.6667 35.7787 36.6667ZM60.2209 36.6667C60.0109 36.6667 59.7965 36.6067 59.6076 36.4811C59.5765 36.4611 56.4754 34.4445 52.4443 34.4445C51.8298 34.4445 51.3331 33.9467 51.3331 33.3333C51.3331 32.72 51.8298 32.2222 52.4443 32.2222C57.1709 32.2222 60.6909 34.5333 60.8387 34.6311C61.3498 34.9711 61.4876 35.6611 61.1465 36.1722C60.9331 36.4933 60.5798 36.6667 60.2209 36.6667Z" fill="#664500"/>
<path d="M58 44.5456L68 40C68 39.2667 67.9544 38.5456 67.8789 37.8334L58 42.3234V41.1112C58 39.8845 57.0044 38.8889 55.7778 38.8889H40.2222C38.9956 38.8889 38 39.8845 38 41.1112V42.3234L28.1222 37.8334C28.0456 38.5456 28 39.2667 28 40L38 44.5456V49.5967L29.7189 48.0912C30.0978 48.9467 30.5422 49.7656 31.0333 50.5523L38 51.8189V53.3334C38 54.56 38.9956 55.5556 40.2222 55.5556H55.7778C57.0044 55.5556 58 54.56 58 53.3334V51.8189L64.9678 50.5512C65.4578 49.7645 65.9022 48.9456 66.2811 48.09L58 49.5967V44.5456Z" fill="#F5F8FA"/>
<defs>
<filter id="filter0_d_495_912" x="0" y="0" width="96" height="96" filterUnits="userSpaceOnUse" color-interpolation-filters="sRGB">
<feFlood flood-opacity="0" result="BackgroundImageFix"/>
<feColorMatrix in="SourceAlpha" type="matrix" values="0 0 0 0 0 0 0 0 0 0 0 0 0 0 0 0 0 0 127 0" result="hardAlpha"/>
<feOffset dy="8"/>
<feGaussianBlur stdDeviation="8"/>
<feColorMatrix type="matrix" values="0 0 0 0 0 0 0 0 0 0 0 0 0 0 0 0 0 0 0.08 0"/>
<feBlend mode="normal" in2="BackgroundImageFix" result="effect1_dropShadow_495_912"/>
<feBlend mode="normal" in="SourceGraphic" in2="effect1_dropShadow_495_912" result="shape"/>
</filter>
</defs>
</svg>
