<svg width="96" height="96" viewBox="0 0 96 96" fill="none" xmlns="http://www.w3.org/2000/svg">
<g filter="url(#filter0_d_495_894)">
<circle cx="48" cy="40" r="32" fill="white"/>
</g>
<path d="M35.7778 20H54.6667V46.6667H35.7778V20Z" fill="#E1E8ED"/>
<path d="M35.7778 33.3333H54.6667V46.6667H35.7778V33.3333Z" fill="#99AAB5"/>
<path d="M35.7778 46.6667C40.0733 46.6667 43.5556 40.6971 43.5556 33.3333C43.5556 25.9695 40.0733 20 35.7778 20C31.4822 20 28 25.9695 28 33.3333C28 40.6971 31.4822 46.6667 35.7778 46.6667Z" fill="#CCD6DD"/>
<path d="M54.6667 46.6667C59.5759 46.6667 63.5556 40.6971 63.5556 33.3333C63.5556 25.9695 59.5759 20 54.6667 20C49.7575 20 45.7778 25.9695 45.7778 33.3333C45.7778 40.6971 49.7575 46.6667 54.6667 46.6667Z" fill="#E1E8ED"/>
<path d="M63.5555 33.3333V46.6667C63.5555 56.6667 68 60 68 60H48C48 60 43.5555 56.6667 43.5555 46.6667V32.2222L63.5555 33.3333Z" fill="#E1E8ED"/>
<path d="M63.5553 33.3333C63.5553 27.8622 61.3564 23.1667 58.2142 21.1111H40.5797C43.0542 23.6489 44.6664 28.1289 44.6664 33.3333V48.8889C45.143 55.2033 47.6475 58.1111 48.4253 58.8889H66.9442C65.6297 57.2178 63.5553 53.5011 63.5553 46.6667V33.3333Z" fill="#F5F8FA"/>
<path d="M34.6667 38.8889C36.5077 38.8889 38 36.4016 38 33.3333C38 30.2651 36.5077 27.7778 34.6667 27.7778C32.8258 27.7778 31.3334 30.2651 31.3334 33.3333C31.3334 36.4016 32.8258 38.8889 34.6667 38.8889Z" fill="#99AAB5"/>
<path d="M31.6111 31.1222C32.1244 29.1555 33.2978 27.7778 34.6666 27.7778C36.5078 27.7778 38 30.2655 38 33.3333C38 34.0178 37.9155 34.6667 37.78 35.2722C37.0589 32.9522 34.59 31.2255 31.6111 31.1222Z" fill="#66757F"/>
<path d="M46.3333 34.4444H44.6666V33.3333H46.3333C46.6388 33.3333 46.8888 33.5833 46.8888 33.8889C46.8888 34.1944 46.6388 34.4444 46.3333 34.4444ZM50.7777 34.4444H48.5555C48.25 34.4444 48 34.1944 48 33.8889C48 33.5833 48.25 33.3333 48.5555 33.3333H50.7777C51.0833 33.3333 51.3333 33.5833 51.3333 33.8889C51.3333 34.1944 51.0833 34.4444 50.7777 34.4444ZM55.2222 34.4444H53C52.6944 34.4444 52.4444 34.1944 52.4444 33.8889C52.4444 33.5833 52.6944 33.3333 53 33.3333H55.2222C55.5277 33.3333 55.7777 33.5833 55.7777 33.8889C55.7777 34.1944 55.5277 34.4444 55.2222 34.4444ZM59.6666 34.4444H57.4444C57.1388 34.4444 56.8888 34.1944 56.8888 33.8889C56.8888 33.5833 57.1388 33.3333 57.4444 33.3333H59.6666C59.9722 33.3333 60.2222 33.5833 60.2222 33.8889C60.2222 34.1944 59.9722 34.4444 59.6666 34.4444ZM63.5555 34.4444H61.8888C61.5833 34.4444 61.3333 34.1944 61.3333 33.8889C61.3333 33.5833 61.5833 33.3333 61.8888 33.3333H63.5555V34.4444ZM46.3333 47.7778H44.6666V46.6667H46.3333C46.6388 46.6667 46.8888 46.9167 46.8888 47.2222C46.8888 47.5278 46.6388 47.7778 46.3333 47.7778ZM50.7777 47.7778H48.5555C48.25 47.7778 48 47.5278 48 47.2222C48 46.9167 48.25 46.6667 48.5555 46.6667H50.7777C51.0833 46.6667 51.3333 46.9167 51.3333 47.2222C51.3333 47.5278 51.0833 47.7778 50.7777 47.7778ZM55.2222 47.7778H53C52.6944 47.7778 52.4444 47.5278 52.4444 47.2222C52.4444 46.9167 52.6944 46.6667 53 46.6667H55.2222C55.5277 46.6667 55.7777 46.9167 55.7777 47.2222C55.7777 47.5278 55.5277 47.7778 55.2222 47.7778ZM59.6666 47.7778H57.4444C57.1388 47.7778 56.8888 47.5278 56.8888 47.2222C56.8888 46.9167 57.1388 46.6667 57.4444 46.6667H59.6666C59.9722 46.6667 60.2222 46.9167 60.2222 47.2222C60.2222 47.5278 59.9722 47.7778 59.6666 47.7778ZM63.5555 47.7778H61.8888C61.5833 47.7778 61.3333 47.5278 61.3333 47.2222C61.3333 46.9167 61.5833 46.6667 61.8888 46.6667H63.5555V47.7778Z" fill="#CCD6DD"/>
<defs>
<filter id="filter0_d_495_894" x="0" y="0" width="96" height="96" filterUnits="userSpaceOnUse" color-interpolation-filters="sRGB">
<feFlood flood-opacity="0" result="BackgroundImageFix"/>
<feColorMatrix in="SourceAlpha" type="matrix" values="0 0 0 0 0 0 0 0 0 0 0 0 0 0 0 0 0 0 127 0" result="hardAlpha"/>
<feOffset dy="8"/>
<feGaussianBlur stdDeviation="8"/>
<feColorMatrix type="matrix" values="0 0 0 0 0.507855 0 0 0 0 0.371563 0 0 0 0 0.725 0 0 0 0.16 0"/>
<feBlend mode="normal" in2="BackgroundImageFix" result="effect1_dropShadow_495_894"/>
<feBlend mode="normal" in="SourceGraphic" in2="effect1_dropShadow_495_894" result="shape"/>
</filter>
</defs>
</svg>
