<svg width="24" height="24" viewBox="0 0 24 24" fill="none" xmlns="http://www.w3.org/2000/svg">
<path d="M2.76929 13.4769H7.80425V21.2308H2.76929V13.4769Z" fill="#DBE3F0"/>
<path d="M9.48257 8.30768H14.5175V21.2308H9.48257V8.30768Z" fill="#DBE3F0"/>
<path d="M16.1959 11.7538H21.2308V21.2308H16.1959V11.7538Z" fill="#DBE3F0"/>
<path d="M11.9204 2.82019C11.9499 2.75224 12.0502 2.75224 12.0797 2.82019L12.664 4.1684C12.6764 4.19704 12.7045 4.21662 12.7367 4.2191L14.2535 4.33578C14.33 4.34166 14.361 4.43322 14.3027 4.4811L13.1471 5.43102C13.1225 5.4512 13.1118 5.48287 13.1193 5.51306L13.4724 6.93338C13.4902 7.00496 13.409 7.06155 13.3436 7.02318L12.045 6.26206C12.0174 6.24589 11.9827 6.24589 11.9551 6.26206L10.6565 7.02318C10.5911 7.06155 10.5099 7.00496 10.5277 6.93338L10.8808 5.51305C10.8883 5.48287 10.8776 5.4512 10.853 5.43102L9.6974 4.4811C9.63915 4.43322 9.67015 4.34166 9.7466 4.33578L11.2634 4.2191C11.2956 4.21662 11.3237 4.19704 11.3361 4.1684L11.9204 2.82019Z" fill="#DBE3F0"/>
<path d="M5.02258 7.78462C5.05204 7.71666 5.15235 7.71666 5.18181 7.78462L5.76616 9.13282C5.77858 9.16147 5.80665 9.18104 5.83888 9.18352L7.35565 9.30021C7.4321 9.30609 7.4631 9.39764 7.40485 9.44552L6.24923 10.3954C6.22468 10.4156 6.21396 10.4473 6.22146 10.4775L6.57452 11.8978C6.59231 11.9694 6.51115 12.026 6.4457 11.9876L5.14714 11.2265C5.11955 11.2103 5.08484 11.2103 5.05725 11.2265L3.75869 11.9876C3.69324 12.026 3.61208 11.9694 3.62987 11.8978L3.98293 10.4775C3.99043 10.4473 3.97971 10.4156 3.95516 10.3954L2.79954 9.44552C2.74129 9.39764 2.77229 9.30609 2.84874 9.30021L4.36551 9.18352C4.39774 9.18104 4.42581 9.16147 4.43823 9.13282L5.02258 7.78462Z" fill="#DBE3F0"/>
<path d="M18.8183 6.12981C18.8478 6.06185 18.9481 6.06185 18.9775 6.12981L19.5619 7.47801C19.5743 7.50666 19.6024 7.52623 19.6346 7.52871L21.1514 7.6454C21.2278 7.65128 21.2588 7.74283 21.2006 7.79071L20.045 8.74064C20.0204 8.76082 20.0097 8.79249 20.0172 8.82267L20.3702 10.243C20.388 10.3146 20.3069 10.3712 20.2414 10.3328L18.9429 9.57168C18.9153 9.55551 18.8806 9.55551 18.853 9.57168L17.5544 10.3328C17.489 10.3712 17.4078 10.3146 17.4256 10.243L17.7787 8.82267C17.7862 8.79249 17.7754 8.76082 17.7509 8.74064L16.5953 7.79071C16.537 7.74283 16.568 7.65128 16.6445 7.6454L18.1612 7.52871C18.1935 7.52623 18.2215 7.50666 18.2339 7.47801L18.8183 6.12981Z" fill="#DBE3F0"/>
</svg>
