<svg width="96" height="96" viewBox="0 0 96 96" fill="none" xmlns="http://www.w3.org/2000/svg">
<g filter="url(#filter0_d_495_921)">
<circle cx="48" cy="40" r="32" fill="white"/>
</g>
<path d="M46.9166 23.3333H49.0833V28.8889H46.9166V23.3333Z" fill="#66757F"/>
<path d="M41.5 33.3333V30C41.5 28.7778 42.475 27.7778 43.6667 27.7778H52.3333C53.525 27.7778 54.5 28.7778 54.5 30V33.3333H41.5Z" fill="#99AAB5"/>
<path d="M54.5 32.2222H41.5C36.0833 32.2222 35 55.5556 35 55.5556C35 58 36.95 60 39.3333 60H56.6667C59.05 60 61 58 61 55.5556C61 55.5556 59.9167 32.2222 54.5 32.2222Z" fill="#FFAC33"/>
<path d="M37.1666 24.4444C37.1666 24.4444 39.3333 20 44.75 20H51.25C53.4166 20 53.4166 24.4444 51.25 24.4444H44.75C39.3333 24.4444 38.25 25.5556 38.25 25.5556L37.1666 24.4444Z" fill="#CCD6DD"/>
<path d="M37.6693 24.96L38.25 25.5556C38.25 25.5556 39.3333 24.4445 44.75 24.4445H51.25C52.3062 24.4445 52.8446 23.39 52.8706 22.3089C51.25 22.3089 49.651 22.2222 44.75 22.2222C40.5694 22.2222 38.7711 23.7522 37.6693 24.96Z" fill="#99AAB5"/>
<path d="M53.9583 34.4445H42.0417C41.7438 34.4445 41.5 34.1945 41.5 33.8889C41.5 33.5833 41.7438 33.3333 42.0417 33.3333H53.9583C54.2563 33.3333 54.5 33.5833 54.5 33.8889C54.5 34.1945 54.2563 34.4445 53.9583 34.4445Z" fill="#FFCC4D"/>
<path d="M48.0001 40C48.0001 40 43.6667 45.3233 43.6667 47.7778C43.6667 50.2322 45.607 52.2222 48.0001 52.2222C50.3932 52.2222 52.3334 50.2322 52.3334 47.7778C52.3334 45.3233 48.0001 40 48.0001 40Z" fill="#FFE8B6"/>
<defs>
<filter id="filter0_d_495_921" x="0" y="0" width="96" height="96" filterUnits="userSpaceOnUse" color-interpolation-filters="sRGB">
<feFlood flood-opacity="0" result="BackgroundImageFix"/>
<feColorMatrix in="SourceAlpha" type="matrix" values="0 0 0 0 0 0 0 0 0 0 0 0 0 0 0 0 0 0 127 0" result="hardAlpha"/>
<feOffset dy="8"/>
<feGaussianBlur stdDeviation="8"/>
<feColorMatrix type="matrix" values="0 0 0 0 0 0 0 0 0 0 0 0 0 0 0 0 0 0 0.08 0"/>
<feBlend mode="normal" in2="BackgroundImageFix" result="effect1_dropShadow_495_921"/>
<feBlend mode="normal" in="SourceGraphic" in2="effect1_dropShadow_495_921" result="shape"/>
</filter>
</defs>
</svg>
