<svg width="18" height="18" viewBox="0 0 18 18" fill="none" xmlns="http://www.w3.org/2000/svg">
<path d="M17.719 7.87361C17.5742 7.78266 16.4389 7.1026 15.9877 6.89619L15.4286 5.54647C15.5948 5.10016 15.9121 3.84814 15.9617 3.63109C16.0077 3.42985 15.9471 3.21912 15.8011 3.07315L14.9268 2.19892C14.7809 2.05295 14.5701 1.99227 14.3689 2.03826C14.2043 2.07591 12.9195 2.39791 12.4535 2.57137L11.1038 2.01228C10.9062 1.58056 10.2464 0.472185 10.1263 0.280969C10.0166 0.106137 9.82466 0 9.61822 0H8.38178C8.17534 0 7.98339 0.106137 7.87363 0.280969C7.78268 0.425849 7.10262 1.56108 6.89621 2.01228L5.5465 2.57137C5.10019 2.40525 3.84817 2.0879 3.63111 2.03826C3.42988 1.99231 3.21915 2.05299 3.07318 2.19892L2.19892 3.07319C2.05295 3.21916 1.99227 3.42989 2.03825 3.63112C2.07591 3.79572 2.3979 5.08047 2.57136 5.54651L2.01227 6.89623C1.58055 7.09374 0.472184 7.75355 0.280969 7.87364C0.106137 7.98337 0 8.17532 0 8.38176V9.61821C0 9.82464 0.106137 10.0166 0.280969 10.1264C0.425848 10.2173 1.56108 10.8974 2.01227 11.1038L2.57136 12.4535C2.40525 12.8998 2.08789 14.1518 2.03825 14.3689C1.9923 14.5701 2.05295 14.7808 2.19892 14.9268L3.07318 15.8011C3.21915 15.947 3.42995 16.0078 3.63111 15.9617C3.79572 15.9241 5.08046 15.6021 5.5465 15.4286L6.89621 15.9877C7.09372 16.4194 7.75354 17.5278 7.87363 17.719C7.98339 17.8939 8.17534 18 8.38178 18H9.61822C9.82466 18 10.0166 17.8939 10.1264 17.719C10.2173 17.5742 10.8974 16.4389 11.1038 15.9877L12.4535 15.4286C12.8998 15.5947 14.1518 15.9121 14.3689 15.9617C14.5702 16.0078 14.7809 15.947 14.9268 15.8011L15.8011 14.9268C15.9471 14.7808 16.0077 14.5701 15.9617 14.3689C15.9241 14.2043 15.6021 12.9195 15.4286 12.4535L15.9877 11.1038C16.4194 10.9063 17.5278 10.2465 17.719 10.1264C17.8939 10.0166 18 9.82464 18 9.61821V8.38176C18 8.17532 17.8939 7.98337 17.719 7.87361ZM9 12.9236C6.83652 12.9236 5.07639 11.1635 5.07639 8.99998C5.07639 6.8365 6.83652 5.0764 9 5.0764C11.1635 5.0764 12.9236 6.83653 12.9236 9.00002C12.9236 11.1635 11.1635 12.9236 9 12.9236Z" fill="#DBE3F0"/>
</svg>
