<svg width="20" height="20" viewBox="0 0 20 20" fill="none" xmlns="http://www.w3.org/2000/svg">
<path d="M10.0197 0.000495434C10.0132 0.000495434 10.0066 0.000247717 10.0001 0.000247717C9.99345 0.000247717 9.98678 0 9.98033 0C4.48627 0.0198252 0 4.16056 0 9.48435C0 13.1148 0.450228 15.801 0.940455 16.1819C1.33557 16.489 9.34877 19.7291 9.98033 19.9844V20C9.98033 20 9.98722 19.9973 10.0001 19.9923C10.013 19.9975 10.0197 20 10.0197 20V19.9844C10.651 19.7294 18.6644 16.4892 19.0593 16.1819C19.5496 15.801 20 13.1148 20 9.48435C20.0002 4.16056 15.514 0.0203206 10.0197 0.000495434ZM1.70801 8.96604C1.70801 8.20921 2.97736 5.90478 4.7916 4.91179C6.38339 4.04023 7.65452 4.92047 8.05363 5.75535C8.74609 7.20408 6.96429 8.05135 5.62027 8.05135C4.27626 8.05135 1.70801 8.96604 1.70801 8.96604ZM10.0239 15.194C10.0161 15.194 10.0079 15.1945 10.0001 15.1945C9.99211 15.1945 9.98389 15.195 9.97611 15.195C8.4052 15.1558 5.81762 13.1998 5.81762 11.7489C5.81762 10.2932 7.65697 8.2433 9.97611 8.2153C9.98411 8.2153 9.99211 8.21505 10.0001 8.21505C10.0081 8.21505 10.0159 8.21455 10.0239 8.21455C12.3432 8.24256 14.1824 10.2932 14.1824 11.7489C14.1824 13.1998 11.595 15.1548 10.0239 15.194ZM14.3797 8.05111C13.0357 8.05111 11.2541 7.20383 11.9464 5.7551C12.3455 4.92022 13.6166 4.03998 15.2086 4.91154C17.0229 5.90478 18.2922 8.20921 18.2922 8.96579C18.2922 8.96579 15.7235 8.05111 14.3797 8.05111Z" fill="#8A4FE8"/>
</svg>
